<svg width="301" height="272" viewBox="0 0 301 272" fill="none" xmlns="http://www.w3.org/2000/svg">
<path d="M200.69 52.66V52.84C200.77 52.71 200.83 52.5701 200.92 52.4301L200.69 52.66Z" fill="#0A369C"/>
<path d="M136.2 46.63L135.7 46.09C135.85 46.41 136.02 46.56 136.2 46.63Z" fill="#0A369C"/>
<path d="M201.06 53.55C200.7 54.42 200.7 53.24 200.7 52.84C200.17 53.77 199.97 54.75 199.98 55.77C200.42 55.84 200.66 53.94 201.06 53.54V53.55Z" fill="#0A369C"/>
<path d="M0.880005 270.15L7.48001 232.72H25.18C31.55 232.72 34.65 235.88 34.65 240.72C34.65 245.56 31.27 249.01 27.89 249.91C30.48 250.7 32.85 252.84 32.85 257.24C32.85 264.91 27.72 270.15 17.07 270.15H0.890015H0.880005ZM9.73001 252.84L7.53 265.24H18.35C23.82 265.24 26.97 261.91 26.97 257.63C26.97 253.74 24.72 252.84 21.16 252.84H9.72H9.73001ZM12.38 237.73L10.58 247.93H21.91C26.36 247.93 28.73 245.62 28.73 241.73C28.73 238.52 27.1 237.73 23.21 237.73H12.39H12.38Z" fill="#0A369C"/>
<path d="M34.76 256.23C34.76 241.57 43.05 231.48 56.46 231.48C65.82 231.48 70.83 237.4 70.83 247.26C70.83 262.42 62.94 271.44 49.41 271.44C39.88 271.44 34.75 265.92 34.75 256.22L34.76 256.23ZM64.75 248C64.75 239.71 61.59 236.84 55.51 236.84C46.15 236.84 40.8 244.45 40.8 255.67C40.8 263.79 44.18 266.32 50.33 266.32C58.45 266.32 64.76 260.06 64.76 248H64.75Z" fill="#0A369C"/>
<path d="M71.96 256.23C71.96 241.57 80.2499 231.48 93.6599 231.48C103.02 231.48 108.03 237.4 108.03 247.26C108.03 262.42 100.14 271.44 86.6099 271.44C77.0799 271.44 71.95 265.92 71.95 256.22L71.96 256.23ZM101.95 248C101.95 239.71 98.79 236.84 92.71 236.84C83.35 236.84 77.9999 244.45 77.9999 255.67C77.9999 263.79 81.38 266.32 87.53 266.32C95.65 266.32 101.96 260.06 101.96 248H101.95Z" fill="#0A369C"/>
<path d="M136.67 270.15L141.69 241.74L127.6 270.15H121.57L117.57 241.8L112.55 270.15H106.91L113.51 232.72H122.25L125.91 262.54L140.06 232.72H148.91L142.32 270.15H136.68H136.67Z" fill="#0A369C"/>
<path d="M158.82 270.15L165.42 232.72H183.12C189.49 232.72 192.59 235.88 192.59 240.72C192.59 245.56 189.21 249.01 185.83 249.91C188.42 250.7 190.79 252.84 190.79 257.24C190.79 264.91 185.66 270.15 175.01 270.15H158.83H158.82ZM167.67 252.84L165.47 265.24H176.29C181.76 265.24 184.91 261.91 184.91 257.63C184.91 253.74 182.66 252.84 179.1 252.84H167.66H167.67ZM170.32 237.73L168.52 247.93H179.85C184.3 247.93 186.67 245.62 186.67 241.73C186.67 238.52 185.04 237.73 181.15 237.73H170.33H170.32Z" fill="#0A369C"/>
<path d="M220.32 232.72H226.46L222.06 257.69C220.48 266.77 214.17 271.44 204.64 271.44C196.92 271.44 192.24 268.17 192.24 261.41C192.24 260.4 192.35 259.32 192.58 258.14L197.03 232.72H203.17L198.77 257.64C198.6 258.65 198.49 259.56 198.49 260.4C198.49 264.8 201.03 266.49 205.37 266.49C211.29 266.49 214.9 263.56 215.91 257.7L220.31 232.73L220.32 232.72Z" fill="#0A369C"/>
<path d="M233.79 270.15L239.48 237.79H227.64L228.54 232.72H258.25L257.35 237.79H245.51L239.82 270.15H233.79Z" fill="#0A369C"/>
<path d="M253.8 270.15L260.39 232.72H266.42L259.82 270.15H253.79H253.8Z" fill="#0A369C"/>
<path d="M287.05 270.15L277.97 251.94L270.98 257.97L268.84 270.15H262.87L269.46 232.72H275.44L272.4 250.25L292.41 232.72H300.47L282.88 247.71L294.15 270.14H287.05V270.15Z" fill="#0A369C"/>
<path d="M77.0901 70.29H77.0801C77.1401 70.66 77.19 70.99 77.23 71.28C77.17 70.94 77.1301 70.61 77.0901 70.29Z" fill="#0A369C"/>
<path d="M74.52 72.9L74.47 73.11C74.64 73.07 74.81 73.09 74.52 72.9Z" fill="#0A369C"/>
<path d="M125.67 120.9C125.84 121.18 125.99 121.3 126.14 121.35C125.99 121.23 125.83 121.1 125.67 120.9Z" fill="#0A369C"/>
<path d="M127.74 66.3199L127.68 65.88C127.68 66.05 127.71 66.1899 127.74 66.3199Z" fill="#0A369C"/>
<path d="M141.74 105.73C141.88 105.86 142.02 106.03 142.15 106.15C141.99 105.89 141.86 105.79 141.74 105.73Z" fill="#0A369C"/>
<path d="M77.23 71.28L77.3 71.66C77.28 71.54 77.26 71.42 77.23 71.28Z" fill="#0A369C"/>
<path d="M84.21 101.12C84.04 101.25 83.93 101.4 83.85 101.55L83.89 101.62L84.2 101.12H84.21Z" fill="#0A369C"/>
<path d="M135.22 179.22C135.14 179.19 135.04 179.17 134.93 179.17L135.03 180.04C135.17 179.69 135.23 179.42 135.21 179.22H135.22Z" fill="#0A369C"/>
<path d="M120.63 133.58C120.72 133.63 120.8 133.76 120.89 133.77C120.93 133.5 120.94 133.12 120.85 132.69C120.77 132.26 120.57 131.83 120.34 131.6C119.82 131.06 119.14 130.4 118.35 129.66L117.16 129.8L119.12 131.25C119.44 131.51 119.77 131.69 120.04 132.02C120.32 132.39 120.55 132.97 120.64 133.58H120.63Z" fill="#0A369C"/>
<path d="M69.0801 172.43C69.4701 171.25 69.8201 170.08 70.3201 168.98C70.7801 167.87 71.2501 166.78 71.8001 165.75C70.7801 171.1 70.7101 175.99 71.3501 180.56C71.9901 185.12 73.3801 189.37 75.5901 193.17C77.7901 196.96 80.7901 200.29 84.5201 202.82C88.2401 205.35 92.6501 207.05 97.4701 207.71L96.3301 207.84C97.6801 208.32 99.0001 207.88 103.46 207.85C105.69 207.79 108.71 207.82 112.98 207.42C115.11 207.17 117.57 206.91 120.41 206.26C121.12 206.11 121.86 205.95 122.62 205.73C123 205.63 123.39 205.52 123.78 205.41C124.18 205.3 124.56 205.21 125.06 205.01C126.01 204.65 127 204.26 128.01 203.84C128.92 203.39 129.86 202.91 130.84 202.4L130.94 202.54C131.88 201.8 131.59 201.55 133.64 200.43C132.81 200.91 131.97 201.38 131.15 201.84C130.26 202.28 129.33 202.7 128.43 203.1C129.1 202.51 129.72 201.92 130.32 201.31C130.88 200.7 131.38 200.07 131.92 199.43C132.19 199.11 132.46 198.79 132.74 198.46C132.99 198.13 133.25 197.79 133.52 197.45C134.04 196.76 134.71 196.06 135.3 195.3C135.99 194.8 136.44 194.82 136.71 194.94C137.77 193.69 138.62 192.4 139.53 191.12C140.35 189.83 141.21 188.54 141.93 187.23C142.72 186.64 143.53 186.03 144.31 185.41C144.7 184.05 144.22 183.37 144.21 182.31C144.21 181.79 144.3 181.16 144.66 180.3C145.02 179.44 145.67 178.36 146.65 176.85C145.37 177.76 145.49 176.85 145.78 175.79C146.09 174.74 146.48 173.49 145.95 173.74C146.26 173.49 146.83 172.85 147.32 172.33C147.65 171.34 147.96 170.1 148.31 168.79C148.63 167.47 148.92 166.06 149.15 164.7C149.59 161.98 149.68 159.46 149.44 158.43C149.44 158.43 149.04 159.4 148.4 160.91C147.73 162.4 146.79 164.37 145.63 166.35C143.38 170.35 140.29 174.32 138.65 175.77C141.22 170.99 139.03 174.4 138.12 175.13L138.34 175.62C136.6 178.36 135.64 177.85 134.65 179.11C134.72 179.15 134.83 179.16 134.95 179.17L134.92 178.93C135.15 178.89 135.22 179.02 135.23 179.22C135.44 179.29 135.53 179.51 135.06 180.24L135.04 180.04C134.51 181.27 133.19 183.17 132.55 183.94L131.82 183.47C131.9 184.9 129.05 187.88 125.63 190C124.8 190.56 123.86 190.96 123.04 191.41C122.15 191.76 121.33 192.12 120.57 192.35C119.78 192.54 119.15 192.76 118.52 192.89C117.9 193.02 117.41 193.15 117.07 193.29C116.3 193.29 115.53 193.41 114.78 193.64C114 193.8 113.23 194.11 112.41 194.34C111.59 194.57 110.75 194.85 109.87 194.98C109 195.16 108.09 195.2 107.19 195.12C104.33 195.08 103.67 194.6 103.36 194.23C103.05 193.83 103.07 193.43 101.83 192.86C101.04 192.63 100.71 192.52 100.58 192.56C100.46 192.6 100.57 192.78 100.73 192.98C101.05 193.42 101.68 193.87 101 193.81C100.38 193.47 99.7701 193.13 99.1901 192.79C98.6301 192.39 98.0701 192.03 97.5601 191.63C99.6701 192.22 98.6801 191.33 98.4301 190.91C96.9801 190.34 95.4401 189.1 94.3301 188.04C93.2401 186.93 92.3801 186.08 91.4401 186.28C91.2301 185.84 91.0501 185.45 90.8901 185.1C90.7801 184.73 90.7001 184.41 90.6301 184.13C90.4701 183.59 90.4601 183.14 90.4501 182.78C90.4401 182.42 90.4301 182.15 90.3901 181.86C90.3901 181.56 90.3401 181.26 90.2301 180.89C90.1701 181.18 90.1601 181.61 90.1301 181.99C90.1301 182.34 90.1101 182.65 89.9501 182.73C89.9501 181.91 89.8901 181.74 89.7601 181.89C89.6201 182.04 89.5101 182.48 89.5801 182.79C89.4701 182.68 89.3601 182.53 89.2701 182.35C89.1901 182.16 89.1201 181.94 89.0401 181.69C88.9701 181.45 88.9001 181.18 88.8301 180.89C88.7801 180.59 88.7701 180.27 88.7401 179.94C88.6001 178.62 88.8001 177.02 89.0601 175.54C89.6501 172.53 90.7901 169.99 89.9401 169.49L90.2801 169.57C89.6601 169.11 88.9601 169.03 88.3801 168.82C87.8001 168.61 87.3001 168.25 87.2301 167.17C87.5701 166.8 87.8801 166.43 88.2301 166.08C88.2901 165.39 88.3201 164.67 88.4001 163.97C89.4001 162.91 89.4501 163.69 89.6101 163.75C89.9501 162.11 90.9701 160.45 92.2501 158.84C93.5801 157.21 95.1701 155.68 96.6901 154.28C94.7701 154.43 92.7801 154.69 90.8101 155.13C92.3201 153.92 94.5501 152.46 96.4401 151.25C97.4101 150.64 98.1501 150.13 99.0301 149.42C99.8001 148.77 100.28 148.24 100.24 147.89L103.79 146.86C106.52 145.66 108.57 144.73 109.63 143.98C110.18 143.61 110.57 143.3 110.8 143.04C110.98 142.77 111.06 142.55 111.08 142.36C111.15 141.59 110.46 141.28 112.17 140.23C113.03 139.78 113.8 139.35 114.55 138.91L115.67 138.23L116.7 137.58L116.11 138.25L115.46 138.97C115.02 139.45 114.59 139.93 114.05 140.46C116.04 138.97 117.16 138.01 118.23 137.12C118.73 136.7 119.22 136.29 119.73 135.86C119.98 135.63 120.24 135.45 120.45 135.11C120.67 134.77 120.83 134.32 120.92 133.81L120.88 133.77C120.83 134.05 120.76 134.23 120.67 134.27C120.67 134.05 120.65 133.81 120.62 133.59C120.43 133.46 120.24 133.2 119.99 132.87C119.74 132.55 119.43 132.15 119.05 131.93C118.28 131.51 117.37 130.96 116.51 130.29C116.32 130.13 116.01 129.88 115.74 129.67C115.46 129.45 115.17 129.24 114.88 129.03L113.99 128.41C113.66 128.2 113.44 128.01 112.98 127.77C112.15 127.3 111.31 126.82 110.45 126.3C110.24 126.17 110.02 126.03 109.8 125.89L109.48 125.68C109.36 125.61 109.2 125.55 109.06 125.48C108.48 125.21 107.89 124.93 107.28 124.63C106.44 124.25 105.54 123.86 104.63 123.38C103.78 122.86 102.89 122.27 101.93 121.62C100.85 121.64 99.7901 121.71 98.8901 121.7C96.9001 120.2 96.2301 119.42 95.1901 118.32L95.8501 117.38C96.3101 117.71 96.8201 118.09 97.4101 118.46C97.7501 118.66 98.1001 118.87 98.4701 119.09C98.9901 119.42 99.5801 119.75 100.19 120.08C100.78 120.43 101.47 120.71 102.16 121.02C102.85 121.32 103.55 121.63 104.26 121.94C104.62 122.1 104.98 122.25 105.34 122.41L105.88 122.65L106.48 122.85C107.29 123.12 108.1 123.39 108.91 123.66L110.74 124.38C111.02 124.5 111.4 124.61 111.6 124.75L112.26 125.17C113.14 125.73 114.02 126.28 114.88 126.83L115.52 127.24L115.95 127.61C116.23 127.85 116.51 128.09 116.78 128.33C117.32 128.8 117.84 129.26 118.33 129.7L119.03 129.61C118.52 129.11 117.87 128.53 117.25 128L116.29 127.19C116.16 127.06 115.89 126.91 115.66 126.77L114.95 126.34C114.02 125.78 113.11 125.23 112.26 124.72C111.91 124.45 111.26 124.26 110.75 124.05C110.23 123.84 109.72 123.65 109.25 123.46C108.67 123.26 108.14 123.07 107.67 122.89C107.28 122.68 106.7 122.4 106.24 122.02C105.78 121.64 105.33 121.22 105.04 120.85C104.46 120.12 104.46 119.59 106.52 120.09L102.17 119.37C101.06 118.82 100.06 118.24 99.2101 117.71C98.9401 117.55 98.6801 117.39 98.4201 117.24C98.2001 117.11 97.9801 116.98 97.7801 116.84C96.9801 116.29 96.2701 115.8 95.6301 115.36C94.4001 114.39 93.4001 113.62 92.5001 112.7C90.7001 110.9 88.9101 108.94 86.2801 104.48L86.3701 105.55C85.6201 104.84 84.8601 104.11 84.3501 103.44C83.8701 102.74 83.6201 102.11 83.8501 101.61C82.2001 98.97 80.8601 96.05 79.9801 93.25C79.1201 90.44 78.7201 87.77 78.7801 85.64C78.2601 85.5 77.7301 85.36 77.2201 85.21C77.0701 84.56 77.3401 83.61 77.4001 82.82C77.4701 82.03 77.3701 81.3901 76.3601 81.3101C75.9201 80.4401 75.5201 79.55 75.1301 78.64C74.9801 77.73 74.6701 77.03 74.4701 76.27C74.2601 75.51 74.0901 74.71 74.3601 73.6V73.59C74.3901 73.45 74.4201 73.3101 74.4701 73.1701L74.3601 73.21C74.3601 72.78 74.3601 72.46 74.3601 72.22C74.3601 72.11 74.3301 72.0901 74.2901 72.0501C74.2101 71.9901 74.0601 71.99 73.9201 71.98C73.6401 71.98 73.3701 71.89 73.7001 71.22C74.1801 71.1 73.7301 70.9101 73.2001 70.5601C72.6601 70.2301 72.0301 69.71 72.1801 69.29C72.8501 69.31 73.5101 69.45 74.1901 69.73C74.7701 69.63 74.5701 69.3 74.2301 68.52C73.9001 67.78 73.4301 66.6 73.5701 65.59C73.7901 65.64 74.1901 65.9 74.5601 66.37C74.9401 66.84 75.2801 67.4401 75.5801 68.0501C76.2001 69.2701 76.7001 70.55 77.3101 71.83C76.6001 70.29 76.4801 69.86 76.3901 69.59C76.3201 69.33 76.3001 69.25 76.3301 68.74C76.7601 69.91 76.7501 70.09 77.0701 71.1C77.3401 71.79 77.2301 71.52 77.1601 71.15C77.0801 70.77 76.9801 70.25 77.0901 70.35C76.9401 69.33 76.8201 68.03 76.8201 67.1C76.8201 66.31 76.8801 65.7801 77.0001 65.8101L76.6401 65.04C77.4001 64.67 78.8901 65.2101 79.7301 66.6801L79.4001 67.3001L80.0001 67.53L80.3101 67.66L80.4701 67.73L80.8401 67.95L80.4801 68.79C81.8101 69.69 83.2101 70.53 84.4701 71.5L84.1101 70.89C85.0501 71.52 88.1201 73.65 89.4601 75.35L89.0801 75.6701C89.9301 76.9601 90.8701 78.03 91.8901 78.99C92.8901 79.97 94.0401 80.76 95.1301 81.6701C97.3401 83.4501 99.9001 85.11 102.28 87.71H100.92C101.78 90.14 102.5 87.15 104.05 89.59L103.22 90.51C106.1 91.31 105.05 93.21 105.68 94.9L106.41 93.24L108.23 95.96C110.04 99.13 107.98 98.97 107 99.08L109.5 100.22L108.66 101.47C111.06 101.88 109.56 102.99 112.12 105.02C111.84 105.55 111.12 105.09 111.56 106.09C113.11 107.1 114.7 108.08 116.25 109.14C115.41 108.43 114.54 107.77 113.68 107.09L115.6 106.18C118.84 107.92 118 110 119.84 111.6L118.4 110.61C121.03 113.51 120.42 114.18 121.26 116.28C121.2 115.49 121.09 114.3 122.2 115.46C122.95 116.36 121.94 116.4 122.37 117.44C123.67 116.89 125.86 118.79 126.73 121.32C126.55 121.4 126.36 121.46 126.16 121.39C126.71 121.81 127.2 121.9 127.55 123.04L125.89 123.33L128.33 124.36C128.78 125.82 130.9 126.99 129.93 127.41L129.21 126.88L135.09 136.46L134.15 137.28C136.19 137.27 137.02 142.76 138.58 141.27C138.82 143.69 143.99 147.77 141.3 148.09C141.43 148.28 141.55 148.48 141.68 148.67C141.82 148.88 141.96 149.09 142.1 149.29C142.32 149.61 142.55 149.93 142.76 150.24L143.1 150.72L143.51 151.14C143.78 151.41 144.05 151.69 144.32 151.96L144.63 152.26L144.85 152.46C145.15 152.72 145.45 152.98 145.74 153.24L145.96 153.43C146.03 153.49 146.09 153.54 146.24 153.68L147.01 154.4C147.52 154.87 148.03 155.33 148.53 155.8C148.66 155.91 148.78 156.03 148.91 156.14L149.38 156.36L150.32 156.8C150.94 157.09 151.56 157.39 152.18 157.68L153.11 158.12L153.85 158.4C154.32 158.58 154.79 158.76 155.28 158.95C156.23 159.35 157.25 159.66 158.3 160.06C160.4 160.84 162.73 161.62 165.48 162.56C167.29 163.95 171.19 165.04 175.77 165.08C180.34 165.18 185.53 164.13 189.6 162.7C193.5 161.06 196.82 158.75 199.59 156.23C200.27 155.58 200.94 154.95 201.57 154.27C202.18 153.56 202.78 152.85 203.35 152.13C203.95 151.43 204.41 150.65 204.91 149.91C205.4 149.16 205.89 148.41 206.28 147.61C208.01 144.5 209.07 141.2 209.79 137.75C210.5 134.29 210.7 130.63 210.34 126.73C210.96 124.34 210.84 121.58 210.22 118.76C209.83 117.37 209.46 115.93 208.81 114.54C208.5 113.84 208.2 113.14 207.85 112.46C207.47 111.78 207.08 111.11 206.69 110.44C206.31 109.76 205.85 109.12 205.39 108.48C204.92 107.85 204.5 107.2 203.99 106.6C202.97 105.4 201.97 104.18 200.92 103.18C198.89 101.04 196.78 99.26 194.96 97.4201C193.97 97.2101 193 97.03 192.05 96.86C191.48 96.23 190.78 95.7 190.03 95.15C189.84 95.02 189.65 94.88 189.45 94.75L189.38 94.7L189.34 94.6801H189.32V94.6701L189.38 94.7L189.49 94.76L189.6 94.82L189.66 94.85V94.84H189.65L189.61 94.77L189.42 94.59C189.15 94.39 188.78 94.31 188.35 94.24C187.93 94.17 187.45 94.12 187.12 94.02C186.8 93.92 186.64 93.79 187.04 93.52C185.9 93.84 185.36 93.94 185.2 93.98C185.17 94.01 184.89 94.13 183.65 94.57C183.81 94.44 183.33 94.49 183.16 94.51C182.99 94.51 183.19 94.4399 184.81 93.9399L185.23 93.82C186.02 93.58 186.26 93.5 186.22 93.5L185.76 93.6C185.6 93.6 185.58 93.48 186.95 93.07L183.67 94.01C184.14 93.8 184.58 93.58 185 93.37C185.11 93.37 185.22 93.37 185.34 93.37C184.5 93.22 185.16 92.3401 185.86 91.5601C186.1 91.2801 186.37 91.02 186.64 90.77L187.04 90.39C187.17 90.27 187.3 90.17 187.48 89.97L187.97 89.47L188.21 89.23L188.74 88.52C189.45 87.52 190.21 86.54 190.85 85.48C193.52 81.3 195.68 76.46 196.59 70.24C197 71.57 197.1 70.7101 197.25 69.5501C197.4 68.3901 197.65 66.96 198.56 67.1C200.24 65.35 200.64 63.35 200.57 61.4C200.52 59.45 200 57.56 200 55.82C199.91 55.8 199.81 55.75 199.71 55.53C200.13 53.58 200.46 51.6301 200.79 49.6701C201.7 51.5801 201.38 50.4501 200.99 49.2901C200.59 48.1301 200.14 46.95 200.95 48.66C201.81 44.86 202.3 40.71 202.45 36.39C202.53 34.23 202.53 32.0201 202.47 29.7901V29.37L202.44 28.83L202.37 27.5401C202.32 26.68 202.27 25.82 202.23 24.95C202.14 23.22 201.93 21.42 201.78 19.65C201.61 17.88 201.34 16.16 201.12 14.41L201.03 13.76L200.86 13.19L200.52 12.0501L199.84 9.77003C199.75 9.35003 199.55 9.13006 199.4 8.80006L198.93 7.90004L197.99 6.09999C197.34 5.07999 196.48 3.98999 195.26 3.09999C194.06 2.18999 192.6 1.52003 191.18 1.14003C189.74 0.750026 188.31 0.610026 186.92 0.640026C186.22 0.670026 185.53 0.71007 184.85 0.81007C184.51 0.84007 184.17 0.919982 183.84 0.969982C183.67 1.00998 183.51 1.00997 183.33 1.07997L182.79 1.29005C181.35 1.83005 179.92 2.38005 178.5 2.91005L179.5 3.15004C178.25 3.64004 176.93 4.21006 175.59 4.80006C173.19 6.43006 170.78 8.15003 168.5 9.64003C167.36 10.35 166.2 11.17 165.41 11.7C164.72 12.13 164.04 12.49 163.4 12.75C162.57 13.09 161.82 13.6 161.19 14.25C160.56 14.9 160.03 15.64 159.57 16.36C158.66 17.8 158.02 19.12 157.58 19.63C156.54 21.29 155.07 22.32 153.99 22.83C152.91 23.33 152.27 23.3601 152.87 22.7901C151.56 24.3701 150.6 26.19 149.47 28.07C148.93 29.04 148.34 30.02 147.62 30.98C147.26 31.46 146.86 31.94 146.42 32.41C145.99 32.89 145.54 33.4 145.02 33.88C144.34 33.96 143.51 34.85 142.63 36.1C141.74 37.36 140.94 39.09 140.11 40.7C139.25 42.3 138.64 43.98 137.98 45.1C137.34 46.24 136.76 46.9101 136.25 46.6801L136.38 46.82C135.21 48.24 134.3 49.79 133.51 51.39C132.74 53 132.22 54.71 131.64 56.41L131.22 57.69L130.86 58.99C130.61 59.86 130.35 60.73 130.06 61.6C129.43 63.33 128.85 65.09 127.97 66.86C127.97 66.86 127.85 66.67 127.79 66.38C128.42 72.05 129.71 77.5001 131.14 82.6701C133.81 81.6301 136.46 80.68 139.09 79.82C141.73 76.25 144.63 72.9901 147.59 70.0601C148.91 65.2601 150.58 60.57 152.73 56.08C154.93 51.63 157.54 47.3501 160.54 43.3001C162.03 41.9101 163.4 40.4501 164.99 39.1701L167.29 37.2L169.71 35.35C171.27 34.08 173.02 32.98 174.68 31.82C175.49 31.23 176.41 30.7201 177.27 30.1801L178.57 29.37C178.86 29.22 178.88 29.25 178.92 29.28L179.07 29.09C179.21 28.94 179.47 28.61 179.75 28.73C179.91 28.89 179.95 29.15 180.05 29.46L180.08 29.7L180.1 29.83V29.91L180.12 30.34C180.15 31.49 180.21 32.6501 180.21 33.7901C180.25 36.09 180.21 38.38 180.12 40.65C179.94 45.2 179.45 49.6901 178.66 54.0401C178.96 55.5201 179.17 56.98 179.39 58.48C177.23 62.48 175.57 66.86 173.55 71.1C173.3 71.63 173.04 72.16 172.79 72.6899L171.97 74.24C171.71 74.77 171.42 75.27 171.12 75.77L170.68 76.52L170.46 76.9L170.35 77.09L170.07 77.46L167.8 80.46L167.23 81.21C166.99 81.46 166.71 81.72 166.45 81.97L164.86 83.5C163.2 85.54 159.45 87.51 156.42 89.48C156.28 89.56 156.07 89.64 156 89.72L155.73 89.96L155.19 90.4399L154.1 91.41C153.36 92.06 152.63 92.7 151.9 93.34L151.35 93.82L151.07 94.0601L150.93 94.1801L150.88 94.28L150.44 95.09C150.14 95.63 149.84 96.18 149.54 96.72L149.08 97.53C148.93 97.79 148.73 98.1 148.69 98.27C148.54 98.67 148.38 99.08 148.23 99.48C147.94 100.21 147.65 100.94 147.37 101.66L149.56 101.36C149.46 101.96 149.29 102.52 149.13 102.79C148.97 103.06 148.79 103.26 148.61 103.42C148.25 103.74 147.88 103.92 147.71 104.17C147.7 104.46 147.67 104.55 147.65 104.73L147.59 105.2V105.32L147.66 105.33L147.79 105.36C147.88 105.37 147.97 105.39 148.09 105.5C148.21 105.59 148.32 105.66 148.44 105.75L148.88 106.22L150.2 107.66L151.12 108.67C151.52 109.05 152.06 109.5 152.53 109.91C152.79 110.12 152.97 110.32 153.3 110.54L154.45 111.22L155.6 111.89L156.18 112.23L156.32 112.31L156.56 112.37L157.03 112.48L160.81 113.36L161.28 113.47C161.37 113.48 161.41 113.52 161.54 113.51L161.9 113.46L163.35 113.27L166.24 112.88L169.12 112.5C169.39 112.45 169.5 112.5 169.68 112.5L170.18 112.54L171.18 112.61L173.18 112.75L174.18 112.82L174.68 112.86C174.84 112.88 174.95 112.94 175.09 112.97L178.27 113.99L178.67 114.12L178.87 114.18L178.97 114.21L179.02 114.23C179.02 114.23 178.97 114.2 179.19 114.3L179.51 114.44L179.54 114.46L179.6 114.49L179.72 114.55L180.21 114.8C180.89 115.1 181.46 115.52 182.09 115.87C183.26 116.67 184.29 117.57 185.23 118.54C186.01 119.47 186.77 120.5 187.37 121.7C187.92 122.92 188.45 124.2 188.7 125.58C188.95 126.94 189.14 128.35 189.03 129.7V130.21L188.95 130.7C188.9 131.03 188.89 131.37 188.83 131.69C188.68 132.32 188.58 132.96 188.35 133.53C188.2 134.15 187.89 134.65 187.69 135.21C187.37 135.68 187.17 136.24 186.8 136.63C186.63 136.84 186.51 137.1 186.31 137.28C186.12 137.47 185.94 137.66 185.77 137.86C185.62 138.07 185.34 138.21 185.15 138.41C184.93 138.58 184.76 138.81 184.5 138.94C180.98 141.6 174.73 142.01 169.28 140.05C168.8 139.72 168.06 139.29 167.18 138.92C166.75 138.7 166.3 138.47 165.82 138.25C165.35 138.03 164.9 137.74 164.43 137.51L164.15 137.36L164.11 137.31L164.04 137.22L163.97 137V136.94L163.96 136.89L163.82 136.71C163.64 136.47 163.48 136.24 163.33 136.03C163.18 135.81 163.06 135.61 162.95 135.42C162.9 135.32 162.85 135.23 162.81 135.15L162.86 135.07L162.7 135.13H162.61L162.55 135.11L162.51 135.09L162.42 135L161.06 133.48C160.16 132.46 159.28 131.42 158.42 130.36C156.68 128.25 155.04 126.02 153.43 123.78C150.21 119.28 147.21 114.59 144.26 109.99L144.62 110.25L141.53 106.1C141.5 105.85 141.63 105.74 141.82 105.81C137.57 101.66 133.28 93.2801 129.18 87.0501L129.57 87.3001C123.02 78.5501 115.6 70.32 107.47 63.09C105.42 61.31 103.42 59.46 101.28 57.83L98.1101 55.32L96.5301 54.07L94.9001 52.9C93.4301 51.9 88.7901 48.36 85.1401 46.15C81.3501 43.79 77.5601 41.4201 73.7701 39.0601L73.1001 38.71C72.8801 38.61 72.6301 38.42 72.4701 38.45L71.4101 38.34L69.2901 38.12L65.0601 37.6701L62.9501 37.44L61.8901 37.32C61.7201 37.32 61.5201 37.25 61.3801 37.2901C61.2501 37.32 61.1001 37.36 60.9401 37.41C60.3001 37.61 59.4001 38.02 58.7401 38.49C58.0401 38.97 57.6601 39.36 57.2701 39.87L56.0701 41.32C55.8701 41.57 55.6601 41.77 55.4801 42.07L54.9501 43.0601L53.9001 45.0501L53.6401 45.5501C53.5801 45.7601 53.5301 45.99 53.4801 46.21L53.1701 47.5501L52.5401 50.23C52.4001 51.2 52.3401 52.26 52.2401 53.27C52.1601 54.3 52.0301 55.3 51.9801 56.35L51.8601 59.5401C51.6901 63.8 51.8601 68.26 52.2301 72.75C52.2701 73.3 52.3101 73.9 52.3701 74.41L52.5301 75.6899L52.7801 77.78C53.0001 79.17 53.1901 80.56 53.4301 81.96C54.4101 87.53 55.8301 93.11 57.7701 98.64C60.1001 106.88 64.7301 115.21 71.2801 122.43C74.5501 126.04 78.2901 129.36 82.3401 132.3C83.3301 133.06 84.4001 133.72 85.4401 134.44C85.9601 134.8 86.4801 135.14 87.0301 135.46L87.6701 135.85L87.7901 135.91C87.9701 135.99 88.1601 136.08 88.3301 136.18C88.5201 136.29 88.6801 136.41 88.7201 136.51C88.7401 136.64 88.7201 136.67 88.3001 136.86C87.5901 136.97 87.1601 136.98 87.0501 136.97L86.9901 136.94H87.0001L86.9301 137.01L86.8001 137.13C86.2001 137.69 85.6001 138.25 84.9901 138.81C84.3201 139.47 83.6601 140.12 83.0001 140.81C81.7001 142.19 80.4201 143.63 79.2401 145.15C78.6501 145.91 78.0601 146.67 77.5201 147.46C77.2501 147.85 76.9701 148.24 76.7001 148.63C76.4301 149.03 76.1601 149.48 75.9001 149.9C73.7901 153.32 72.2501 156.73 71.2601 159.86C69.2201 166.11 69.1101 171.12 69.1801 172.5L69.0801 172.43Z" fill="#0A369C"/>
<path d="M136.69 194.94L136.55 195.11C137.01 195.5 137.05 195.11 136.69 194.94Z" fill="#0A369C"/>
<path d="M96.8699 154.1L96.6799 154.27C97.0999 154.23 97.54 154.22 97.96 154.19L96.8599 154.09L96.8699 154.1Z" fill="#0A369C"/>
<path d="M100.23 191.21C98.3499 190.51 98.2499 190.57 98.4299 190.9C99.1099 191.14 99.7299 191.32 100.23 191.21Z" fill="#0A369C"/>
<path d="M147.96 172.62C148.54 171.17 148 171.62 147.31 172.33C146.81 173.83 146.47 174.87 146.47 174.87C146.91 174.11 147.52 173.41 147.97 172.62H147.96Z" fill="#0A369C"/>
<path d="M138.11 175.13L137.84 174.53C137.62 175.33 137.78 175.37 138.11 175.13Z" fill="#0A369C"/>
</svg>
