<svg width="21" height="6" viewBox="0 0 21 6" fill="none" xmlns="http://www.w3.org/2000/svg">
<path fill-rule="evenodd" clip-rule="evenodd" d="M19.6397 0.674048C13.2718 0.643057 7.17498 0.371889 1.19189 0C-0.924935 1.06143 0.115982 4.63311 1.69923 5.59382C7.07876 4.8423 13.3243 4.85005 19.6397 4.91978C20.392 3.77312 20.1646 1.87494 19.6397 0.6663V0.674048ZM16.1059 3.57943C11.916 3.68015 6.29151 3.40123 2.46023 4.02879C2.12784 3.20754 2.23281 1.99115 1.95289 1.12341C4.84822 1.42557 10.5164 1.60377 14.3302 1.79746C15.7472 1.86719 18.7738 1.06143 18.6251 3.13781C18.1877 3.99005 16.8756 3.56393 16.0971 3.58717L16.1059 3.57943Z" fill="black"/>
</svg>
