<svg width="124" height="25" viewBox="0 0 124 25" fill="none" xmlns="http://www.w3.org/2000/svg">
<path d="M21.8065 18.9333L24.0533 6.1714H30.0834C32.2537 6.1714 33.3095 7.24792 33.3095 8.90095C33.3095 10.554 32.1573 11.7258 31.0052 12.034C31.8881 12.3035 32.6947 13.033 32.6947 14.533C32.6947 17.1472 30.9475 18.9344 27.3171 18.9344H21.8054L21.8065 18.9333ZM24.8221 13.033L24.0732 17.2614H27.7602C29.6236 17.2614 30.6983 16.1273 30.6983 14.6671C30.6983 13.3412 29.9305 13.033 28.7196 13.033H24.821H24.8221ZM25.7251 7.88208L25.1102 11.3611H28.97C30.4867 11.3611 31.2943 10.5728 31.2943 9.24685C31.2943 8.15148 30.7371 7.88208 29.412 7.88208H25.7251Z" fill="#0A369C"/>
<path d="M33.3484 14.186C33.3484 9.18922 36.1712 5.74902 40.7423 5.74902C43.9307 5.74902 45.6402 7.7668 45.6402 11.1305C45.6402 16.3002 42.9514 19.3757 38.3427 19.3757C35.0966 19.3757 33.3495 17.492 33.3495 14.186H33.3484ZM43.5651 11.38C43.5651 8.55506 42.4894 7.575 40.4155 7.575C37.227 7.575 35.4024 10.1693 35.4024 13.9942C35.4024 16.7614 36.5546 17.6262 38.6484 17.6262C41.4137 17.6262 43.5651 15.4931 43.5651 11.38Z" fill="#0A369C"/>
<path d="M46.0244 14.186C46.0244 9.18922 48.8473 5.74902 53.4183 5.74902C56.6068 5.74902 58.3162 7.7668 58.3162 11.1305C58.3162 16.3002 55.6274 19.3757 51.0187 19.3757C47.7726 19.3757 46.0255 17.492 46.0255 14.186H46.0244ZM56.2412 11.38C56.2412 8.55506 55.1654 7.575 53.0915 7.575C49.9031 7.575 48.0784 10.1693 48.0784 13.9942C48.0784 16.7614 49.2306 17.6262 51.3245 17.6262C54.0897 17.6262 56.2412 15.4931 56.2412 11.38Z" fill="#0A369C"/>
<path d="M68.0711 18.9333L69.7806 9.24685L64.9791 18.9333H62.924L61.5602 9.2657L59.8507 18.9333H57.9297L60.1764 6.1714H63.1533L64.4019 16.3379L69.2222 6.1714H72.2378L69.991 18.9333H68.07H68.0711Z" fill="#0A369C"/>
<path d="M75.6188 18.9333L77.8655 6.1714H83.8957C86.066 6.1714 87.1218 7.24792 87.1218 8.90095C87.1218 10.554 85.9696 11.7258 84.8174 12.034C85.7004 12.3035 86.5069 13.033 86.5069 14.533C86.5069 17.1472 84.7598 18.9344 81.1293 18.9344H75.6177L75.6188 18.9333ZM78.6344 13.033L77.8855 17.2614H81.5725C83.4359 17.2614 84.5105 16.1273 84.5105 14.6671C84.5105 13.3412 83.7428 13.033 82.5319 13.033H78.6333H78.6344ZM79.5373 7.88208L78.9224 11.3611H82.7823C84.2989 11.3611 85.1066 10.5728 85.1066 9.24685C85.1066 8.15148 84.5493 7.88208 83.2243 7.88208H79.5373Z" fill="#0A369C"/>
<path d="M96.572 6.1714H98.6659L97.1681 14.686C96.6308 17.7803 94.4793 19.3757 91.2332 19.3757C88.602 19.3757 87.0078 18.2614 87.0078 15.9543C87.0078 15.6084 87.0466 15.2436 87.123 14.8401L88.6397 6.17251H90.7336L89.2357 14.6671C89.1781 15.013 89.1394 15.3201 89.1394 15.6084C89.1394 17.1073 90.0035 17.6838 91.4825 17.6838C93.4988 17.6838 94.7285 16.6849 95.0742 14.686L96.572 6.1714Z" fill="#0A369C"/>
<path d="M101.162 18.9333L103.102 7.90204H99.0691L99.376 6.17252H109.497L109.191 7.90204H105.158L103.218 18.9333H101.163H101.162Z" fill="#0A369C"/>
<path d="M107.98 18.9333L110.226 6.1714H112.282L110.035 18.9333H107.98Z" fill="#0A369C"/>
<path d="M119.311 18.9333L116.219 12.7259L113.837 14.7824L113.107 18.9333H111.071L113.318 6.1714H115.354L114.317 12.1482L121.135 6.1714H123.881L117.889 11.2835L121.73 18.9333H119.31H119.311Z" fill="#0A369C"/>
<path d="M3.2898 8.61493H3.2876C3.29419 8.65784 3.29969 8.69524 3.30518 8.72824C3.29859 8.68974 3.29309 8.65234 3.2887 8.61493H3.2898Z" fill="#0A369C"/>
<path d="M2.99252 8.91647L2.98706 8.94051C3.00671 8.93614 3.02636 8.93832 2.99252 8.91647Z" fill="#0A369C"/>
<path d="M8.90649 14.4698C8.92532 14.5019 8.94304 14.5152 8.96075 14.5219C8.94304 14.5075 8.92532 14.4931 8.90649 14.4698Z" fill="#0A369C"/>
<path d="M17.5789 6.57494V6.59599C17.5877 6.58048 17.5944 6.56386 17.6054 6.54834L17.5789 6.57494Z" fill="#0A369C"/>
<path d="M17.6208 6.67804C17.5798 6.77778 17.5798 6.64258 17.5787 6.59604C17.5167 6.70353 17.4945 6.81657 17.4956 6.93514C17.5466 6.9429 17.5743 6.72348 17.6208 6.67804Z" fill="#0A369C"/>
<path d="M9.14483 8.15591L9.13818 8.10493C9.13818 8.12487 9.14151 8.1415 9.14483 8.15591Z" fill="#0A369C"/>
<path d="M10.7632 12.7148C10.7798 12.7303 10.7953 12.7491 10.8108 12.7635C10.7931 12.7336 10.7776 12.7214 10.7632 12.7148Z" fill="#0A369C"/>
<path d="M10.1224 5.87713L10.0652 5.81441C10.0828 5.85182 10.1026 5.86833 10.1224 5.87713Z" fill="#0A369C"/>
<path d="M3.30518 8.73022L3.31293 8.77454C3.31071 8.76125 3.30739 8.74684 3.30518 8.73022Z" fill="#0A369C"/>
<path d="M4.1125 12.1815C4.09257 12.1959 4.08039 12.2136 4.07153 12.2314L4.07596 12.2402L4.1125 12.1826V12.1815Z" fill="#0A369C"/>
<path d="M10.0098 21.2171C9.99989 21.2138 9.9889 21.2116 9.97681 21.2116L9.9889 21.3117C10.0043 21.271 10.0109 21.2402 10.0098 21.2171Z" fill="#0A369C"/>
<path d="M8.3225 15.9364C8.33247 15.9419 8.34244 15.9574 8.3524 15.9574C8.35683 15.9264 8.35794 15.8821 8.34797 15.8333C8.33801 15.7834 8.31586 15.7336 8.28928 15.707C8.22948 15.6449 8.15086 15.5684 8.05895 15.482L7.92163 15.4986L8.14754 15.666C8.18408 15.6959 8.22173 15.7169 8.25385 15.7557C8.28596 15.7989 8.31254 15.8665 8.3225 15.9364Z" fill="#0A369C"/>
<path d="M2.36227 20.4322C2.4077 20.2958 2.44869 20.1595 2.50519 20.0331C2.55837 19.9045 2.61265 19.7781 2.67691 19.6595C2.55947 20.2781 2.55061 20.8446 2.62484 21.3735C2.69907 21.9001 2.85971 22.3923 3.11452 22.8325C3.36822 23.2715 3.71498 23.6562 4.14705 23.9489C4.57801 24.2416 5.08652 24.4389 5.64489 24.5143L5.51305 24.5299C5.66926 24.5853 5.82215 24.5343 6.33731 24.531C6.59544 24.5232 6.94442 24.5276 7.43742 24.4811C7.68337 24.4523 7.96809 24.4223 8.29712 24.3469C8.37911 24.3303 8.46552 24.3114 8.55304 24.2859C8.59736 24.2738 8.64167 24.2616 8.68709 24.2494C8.73252 24.2361 8.77683 24.2272 8.83444 24.2028C8.94412 24.1618 9.05823 24.1163 9.17566 24.0675C9.28091 24.0154 9.39059 23.96 9.50249 23.9012L9.51467 23.9179C9.62324 23.8325 9.59001 23.8026 9.82598 23.6729C9.7296 23.7294 9.63321 23.7826 9.53794 23.8358C9.4349 23.8868 9.32744 23.9356 9.2233 23.9822C9.30085 23.9145 9.37286 23.8458 9.44155 23.776C9.50692 23.705 9.56342 23.6318 9.62657 23.5587C9.65759 23.5221 9.68861 23.4844 9.72184 23.4456C9.75065 23.4079 9.78167 23.3691 9.81269 23.3281C9.87362 23.2482 9.95006 23.1673 10.0188 23.0797C10.0985 23.0221 10.1506 23.0243 10.1816 23.0376C10.3046 22.8924 10.4021 22.7438 10.5084 22.5952C10.6037 22.4456 10.7023 22.297 10.7854 22.1451C10.8762 22.0764 10.9704 22.0065 11.0613 21.9345C11.1067 21.777 11.0502 21.6983 11.0491 21.5764C11.0491 21.5154 11.0601 21.4433 11.1011 21.3435C11.1432 21.2438 11.2175 21.1196 11.3316 20.9444C11.1831 21.0497 11.1975 20.9444 11.2319 20.8214C11.2684 20.6994 11.3127 20.5542 11.2507 20.5841C11.2873 20.5542 11.3526 20.481 11.4091 20.4211C11.4468 20.3069 11.4834 20.1628 11.5232 20.0109C11.5598 19.8579 11.5941 19.6949 11.6196 19.5375C11.6706 19.2227 11.6817 18.9311 11.6529 18.8124C11.6529 18.8124 11.6063 18.9244 11.5332 19.0996C11.4568 19.2714 11.3471 19.4998 11.213 19.7293C10.9527 20.1927 10.596 20.6506 10.4054 20.8191C10.7023 20.2659 10.4497 20.6606 10.3434 20.746L10.3688 20.8025C10.1672 21.1196 10.0564 21.0608 9.94231 21.2061C9.95117 21.2105 9.96336 21.2116 9.97665 21.2127L9.97333 21.185C9.99992 21.1795 10.0088 21.1961 10.0099 21.2183C10.0343 21.226 10.0442 21.2515 9.99105 21.3358L9.98884 21.3125C9.92791 21.4544 9.77502 21.6739 9.70079 21.7637L9.6166 21.7094C9.62657 21.8746 9.29531 22.2194 8.90091 22.4655C8.80453 22.5298 8.69707 22.5764 8.60068 22.6285C8.49765 22.6695 8.40348 22.7105 8.31485 22.7371C8.2229 22.7593 8.15089 22.7848 8.07777 22.7992C8.00575 22.8147 7.94925 22.8292 7.91048 22.8447C7.82074 22.8447 7.73322 22.858 7.6457 22.8846C7.55596 22.9034 7.46622 22.9389 7.37205 22.9655C7.27789 22.9921 7.18039 23.0254 7.07847 23.0398C6.97765 23.0609 6.87351 23.0653 6.76937 23.0553C6.43923 23.0509 6.36279 22.9955 6.32623 22.9522C6.29078 22.9068 6.29299 22.8591 6.15008 22.7937C6.05923 22.7671 6.02046 22.7538 6.00605 22.7593C5.99165 22.7649 6.00384 22.7848 6.02378 22.8081C6.06145 22.858 6.13346 22.9112 6.0548 22.9045C5.98279 22.8657 5.91299 22.8258 5.84541 22.7859C5.78116 22.7394 5.71579 22.6983 5.65707 22.6518C5.90081 22.7194 5.7867 22.6174 5.75789 22.5686C5.5906 22.5021 5.41224 22.3591 5.28372 22.236C5.15743 22.1074 5.05772 22.0087 4.95025 22.0331C4.92588 21.9821 4.90483 21.9367 4.88711 21.8968C4.87381 21.8546 4.86495 21.8169 4.85609 21.7848C4.83725 21.7216 4.83614 21.6706 4.83504 21.6285C4.83393 21.5863 4.83171 21.5553 4.82839 21.522C4.82839 21.4877 4.82285 21.4533 4.80956 21.4101C4.80291 21.4444 4.8018 21.4932 4.79737 21.5365C4.79737 21.5775 4.79515 21.6129 4.77632 21.6218C4.77632 21.5265 4.76967 21.5076 4.75416 21.5243C4.73865 21.542 4.72425 21.5919 4.73311 21.6285C4.72093 21.6152 4.70763 21.5985 4.69655 21.5775C4.68769 21.5553 4.67883 21.5298 4.66996 21.501C4.6611 21.4721 4.65335 21.4411 4.64559 21.409C4.64005 21.3746 4.63784 21.3369 4.63451 21.2992C4.619 21.1473 4.64116 20.961 4.67218 20.7903C4.74087 20.4422 4.8727 20.1484 4.7741 20.0907L4.81288 20.0996C4.74087 20.0464 4.6611 20.0364 4.59241 20.0131C4.52483 19.9887 4.46722 19.9477 4.45947 19.8224C4.49935 19.7792 4.5348 19.736 4.57579 19.6961C4.58244 19.6162 4.58577 19.5331 4.59463 19.451C4.70985 19.328 4.71649 19.4189 4.73533 19.4255C4.7741 19.236 4.89154 19.0442 5.03999 18.8579C5.19288 18.6694 5.37789 18.492 5.55293 18.3302C5.33025 18.3479 5.10092 18.3767 4.87381 18.4277C5.04775 18.288 5.30588 18.1184 5.52524 17.9787C5.63713 17.9078 5.72244 17.849 5.82436 17.767C5.91299 17.6927 5.96949 17.6295 5.96395 17.5896L6.37497 17.471C6.69072 17.3324 6.9278 17.2237 7.04966 17.1384C7.11392 17.0962 7.15824 17.0608 7.18482 17.0297C7.20587 16.9987 7.21474 16.9732 7.21695 16.951C7.22471 16.8623 7.14494 16.8257 7.34325 16.7038C7.44296 16.6517 7.53159 16.6029 7.61911 16.5508L7.74873 16.4721L7.86727 16.3967L7.79969 16.4743L7.72436 16.5574C7.6745 16.6128 7.62354 16.6683 7.5615 16.7304C7.79083 16.5574 7.92045 16.4465 8.04453 16.3446C8.10214 16.2958 8.15864 16.2492 8.21847 16.1993C8.24727 16.1727 8.27718 16.1528 8.30156 16.1128C8.32704 16.074 8.34587 16.0208 8.35695 15.9621L8.35252 15.9576C8.34698 15.9898 8.33812 16.0108 8.32814 16.0153C8.32814 15.9898 8.32593 15.9621 8.3226 15.9366C8.30045 15.921 8.27829 15.8911 8.24949 15.8534C8.22068 15.8168 8.18412 15.7703 8.14091 15.7448C8.05228 15.696 7.94593 15.6328 7.84733 15.5552C7.82517 15.5363 7.78972 15.5075 7.7587 15.4831C7.72657 15.4576 7.69334 15.4332 7.65899 15.4088L7.55596 15.3368C7.51829 15.3124 7.49281 15.2902 7.43963 15.2625C7.34436 15.2082 7.24687 15.1527 7.14716 15.0918C7.12278 15.0762 7.0973 15.0607 7.07293 15.0452L7.03526 15.0208C7.02197 15.013 7.00313 15.0053 6.98652 14.9975C6.91894 14.9665 6.85136 14.9343 6.78045 14.8988C6.68296 14.8556 6.57882 14.809 6.47468 14.7536C6.37719 14.6926 6.27416 14.6261 6.16226 14.5496C6.03707 14.5518 5.91521 14.5596 5.80996 14.5596C5.58063 14.3866 5.50308 14.2957 5.38232 14.1682L5.45877 14.0596C5.51194 14.0973 5.57177 14.1416 5.63935 14.1838C5.67812 14.207 5.71912 14.2314 5.76121 14.2569C5.82215 14.2946 5.88862 14.3334 5.96063 14.3711C6.02821 14.4121 6.10908 14.4443 6.18774 14.4798C6.26751 14.5152 6.34838 14.5507 6.43037 14.5862C6.47136 14.6039 6.51346 14.6228 6.55445 14.6405L6.6176 14.6682L6.68739 14.6915C6.78045 14.7226 6.87462 14.7536 6.96879 14.7858L7.18039 14.8689C7.21252 14.8833 7.25684 14.8955 7.2801 14.9122L7.35654 14.9609C7.45847 15.0252 7.56039 15.0895 7.6601 15.1527L7.73433 15.2004L7.78418 15.2425C7.81631 15.2702 7.84955 15.2991 7.88057 15.3257C7.94261 15.38 8.00243 15.4332 8.06004 15.4842L8.14202 15.4731C8.08331 15.4155 8.00797 15.3479 7.93596 15.2869L7.82517 15.1938C7.81077 15.1793 7.77975 15.1616 7.75205 15.145L7.67007 15.0951C7.56261 15.0297 7.45736 14.9665 7.35876 14.9077C7.31777 14.8767 7.24243 14.8545 7.18372 14.8301C7.12278 14.8057 7.06517 14.7835 7.00978 14.7614C6.94331 14.7381 6.88127 14.7159 6.82698 14.6949C6.78156 14.6705 6.71398 14.6383 6.6608 14.594C6.60763 14.5496 6.55556 14.5008 6.52121 14.4587C6.45363 14.3744 6.45474 14.3135 6.69293 14.37L6.18996 14.2869C6.06255 14.2237 5.94623 14.156 5.84763 14.0951C5.81661 14.0762 5.78559 14.0585 5.75678 14.0407C5.7313 14.0252 5.70582 14.0108 5.68366 13.9942C5.5906 13.9299 5.50973 13.8733 5.4355 13.8223C5.29369 13.7104 5.17737 13.6205 5.07434 13.5152C4.86606 13.3068 4.65889 13.0795 4.35533 12.564L4.3653 12.6882C4.27778 12.6061 4.19026 12.5219 4.13154 12.4443C4.07615 12.3633 4.04734 12.2902 4.07282 12.2325C3.88227 11.9265 3.72717 11.5895 3.62524 11.2657C3.52664 10.9409 3.47901 10.6316 3.48676 10.3855C3.42583 10.3699 3.3649 10.3533 3.30618 10.3356C3.28845 10.2602 3.31947 10.1504 3.32723 10.0595C3.33609 9.96859 3.3239 9.89431 3.20758 9.88433C3.15662 9.78344 3.11009 9.68034 3.06577 9.57613C3.04805 9.4708 3.01259 9.38987 2.98933 9.30118C2.96606 9.21359 2.94612 9.12046 2.97603 8.99296V8.99185C2.97936 8.97633 2.98379 8.9597 2.98822 8.94307L2.97603 8.94751C2.97603 8.89762 2.97603 8.86103 2.97493 8.83332C2.97493 8.82001 2.9716 8.8178 2.96717 8.81336C2.95831 8.8056 2.94058 8.8056 2.92396 8.8056C2.89184 8.8056 2.85971 8.79452 2.89848 8.71802C2.95388 8.7036 2.90291 8.68254 2.83977 8.64152C2.77773 8.60271 2.70461 8.54285 2.72233 8.49517C2.79988 8.49739 2.87633 8.51402 2.95498 8.54617C3.02256 8.53509 2.9993 8.49628 2.95942 8.40648C2.92064 8.32111 2.86746 8.18364 2.88297 8.06723C2.90845 8.07277 2.95388 8.10382 2.99819 8.15814C3.04251 8.21246 3.08128 8.28231 3.11673 8.35326C3.18764 8.49517 3.24635 8.64262 3.31615 8.79119C3.23417 8.6138 3.22087 8.56391 3.20979 8.53176C3.20204 8.50183 3.19982 8.49185 3.20315 8.43309C3.253 8.56835 3.25189 8.58941 3.28845 8.70693C3.31947 8.78675 3.30618 8.75571 3.29842 8.71247C3.28845 8.66813 3.27737 8.60826 3.28956 8.61934C3.27294 8.50182 3.25854 8.35104 3.25854 8.2435C3.25854 8.15259 3.2663 8.09051 3.27959 8.09384L3.23749 8.00514C3.32612 7.96191 3.49784 8.02509 3.59533 8.19472L3.55766 8.26679L3.62746 8.29339L3.66402 8.30781L3.68285 8.31557L3.72495 8.34107L3.68285 8.43752C3.83685 8.54174 3.99749 8.63819 4.14483 8.75128L4.10274 8.68143C4.21131 8.75349 4.56582 9.00073 4.72093 9.19696L4.67661 9.23465C4.77521 9.38322 4.88267 9.5085 5.00122 9.61937C5.11754 9.73245 5.25049 9.82447 5.37678 9.92979C5.6327 10.136 5.9285 10.3278 6.20325 10.6283H6.04594C6.14454 10.9099 6.22874 10.564 6.4071 10.8456L6.31072 10.952C6.64419 11.0451 6.52232 11.2646 6.59544 11.4609L6.67964 11.2691L6.89013 11.5839C7.09952 11.9509 6.86133 11.932 6.74832 11.9454L7.03637 12.0773L6.93888 12.2214C7.21695 12.2691 7.04191 12.3977 7.33882 12.6327C7.30558 12.6937 7.2236 12.6405 7.27456 12.7569C7.45404 12.8733 7.63683 12.9875 7.81631 13.1106C7.71882 13.0274 7.618 12.952 7.5194 12.8733L7.74208 12.768C8.11654 12.9698 8.01905 13.2103 8.23287 13.3955L8.06558 13.2802C8.37024 13.6161 8.29934 13.6937 8.39683 13.9365C8.39019 13.8456 8.37689 13.707 8.5054 13.8423C8.59182 13.9465 8.47549 13.9509 8.52424 14.0718C8.67491 14.0086 8.9275 14.2281 9.02832 14.5208C9.00727 14.5308 8.98511 14.5374 8.96295 14.5297C9.0261 14.5784 9.0826 14.5884 9.12359 14.7203L8.93193 14.7536L9.21444 14.8722C9.26651 15.0408 9.51246 15.1771 9.39945 15.2248L9.31636 15.1627L9.99549 16.2714L9.88692 16.3656C10.1218 16.3645 10.2193 16.9998 10.3988 16.8279C10.4264 17.1073 11.0247 17.5807 10.7134 17.6162C10.7278 17.6384 10.7433 17.6605 10.7577 17.6827C10.7743 17.7071 10.7909 17.7304 10.8064 17.7548C10.8319 17.7914 10.8585 17.828 10.8829 17.8645L10.9228 17.92L10.9704 17.9688C11.0025 18.0009 11.0336 18.0319 11.0646 18.063L11.1 18.0974L11.1255 18.1206C11.1599 18.1517 11.1942 18.1816 11.2285 18.2104L11.254 18.2326C11.2629 18.2393 11.2695 18.2448 11.2873 18.2614L11.3759 18.3446C11.4346 18.3989 11.4933 18.4521 11.552 18.5065C11.5664 18.5198 11.5808 18.5331 11.5964 18.5453L11.6506 18.5708L11.7592 18.6218C11.8312 18.6561 11.9021 18.6894 11.9752 18.7238L12.0827 18.7748L12.168 18.8069C12.2223 18.828 12.2777 18.849 12.3331 18.8701C12.4439 18.9167 12.5613 18.9521 12.6821 18.9987C12.9247 19.0885 13.1939 19.1794 13.5119 19.2881C13.7212 19.4488 14.1721 19.5741 14.7017 19.5796C15.2302 19.5918 15.8295 19.4699 16.3015 19.3036C16.7513 19.114 17.1368 18.8468 17.4559 18.5552C17.5345 18.4798 17.6121 18.4067 17.6852 18.3291C17.7561 18.247 17.8248 18.1639 17.8913 18.0818C17.9611 18.0009 18.0131 17.91 18.0718 17.8246C18.1283 17.737 18.186 17.6506 18.2303 17.5585C18.4308 17.1993 18.5527 16.8168 18.6357 16.4177C18.7177 16.0175 18.741 15.594 18.7 15.1428C18.772 14.8656 18.7576 14.5463 18.6867 14.2203C18.6424 14.0596 18.5981 13.8922 18.5239 13.7325C18.4884 13.6516 18.453 13.5707 18.412 13.4919C18.3688 13.4132 18.3233 13.3356 18.2779 13.258C18.2347 13.1793 18.1804 13.1061 18.1272 13.0318C18.073 12.9587 18.0242 12.8833 17.9655 12.8146C17.8469 12.676 17.7317 12.5352 17.611 12.4188C17.3772 12.1715 17.1324 11.9653 16.9219 11.7524C16.8078 11.7292 16.6959 11.707 16.5851 11.6881C16.5186 11.615 16.4388 11.5529 16.3513 11.4897C16.3292 11.4742 16.307 11.4586 16.2849 11.4431L16.276 11.4376L16.2716 11.4343H16.2693V11.4331L16.276 11.4365L16.2882 11.4431L16.3004 11.4498L16.307 11.4531V11.452H16.3059L16.3004 11.4442L16.2782 11.4243C16.2472 11.401 16.204 11.391 16.1552 11.3833C16.1065 11.3755 16.0511 11.37 16.0134 11.3578C15.9769 11.3467 15.958 11.3311 16.0046 11.3001C15.8727 11.3367 15.8096 11.3489 15.7919 11.3533C15.7885 11.3566 15.7553 11.3699 15.6124 11.4221C15.6312 11.4076 15.5747 11.4132 15.5559 11.4154C15.5359 11.4154 15.5592 11.4065 15.7475 11.3489L15.7963 11.3345C15.8871 11.3068 15.9159 11.2968 15.9115 11.2979L15.8583 11.309C15.8395 11.309 15.8384 11.2957 15.9957 11.248L15.6168 11.3578C15.6711 11.3334 15.7221 11.3079 15.7697 11.2835C15.7819 11.2835 15.7952 11.2835 15.8085 11.2835C15.7121 11.2657 15.7874 11.1649 15.8694 11.0739C15.8971 11.0418 15.9292 11.0119 15.9591 10.9819L16.0057 10.9387C16.0212 10.9254 16.0356 10.9132 16.0566 10.891L16.1131 10.8334L16.1408 10.8056L16.2018 10.7225C16.2837 10.6072 16.3724 10.493 16.4455 10.371C16.7535 9.88766 17.0039 9.32778 17.1091 8.60715C17.1567 8.76125 17.1678 8.66147 17.1856 8.52732C17.2033 8.39317 17.2321 8.22798 17.3373 8.24461C17.5312 8.04173 17.5777 7.81001 17.5689 7.58606C17.5633 7.361 17.5035 7.14149 17.5035 6.94082C17.4935 6.9386 17.4825 6.93195 17.4692 6.90756C17.5168 6.6825 17.5556 6.45633 17.5932 6.22905C17.6985 6.44968 17.6619 6.31996 17.6154 6.1847C17.5689 6.05055 17.5168 5.91308 17.611 6.11264C17.7107 5.67361 17.7672 5.19245 17.7849 4.69244C17.7938 4.44188 17.7949 4.18688 17.7871 3.92856V3.87978L17.7838 3.8177L17.776 3.66803C17.7705 3.56825 17.765 3.46846 17.7594 3.36868C17.7483 3.16912 17.724 2.96069 17.7074 2.75559C17.6885 2.55049 17.6564 2.35203 17.632 2.14915L17.6221 2.07376L17.6021 2.00835L17.5622 1.87642L17.4836 1.61255C17.4725 1.56377 17.4492 1.53827 17.4326 1.50058L17.3783 1.39636L17.2697 1.18793C17.1944 1.07041 17.0958 0.944025 16.954 0.840919C16.8155 0.735595 16.6471 0.65799 16.4821 0.613643C16.3159 0.568188 16.1508 0.552664 15.9891 0.55599C15.9082 0.559316 15.8284 0.563752 15.7498 0.574839C15.7099 0.578165 15.6722 0.588141 15.6323 0.593684C15.6124 0.598119 15.5947 0.598121 15.5736 0.605882L15.5116 0.630272C15.3454 0.693467 15.1803 0.755552 15.0152 0.817638L15.1305 0.845355C14.9864 0.901897 14.8335 0.967308 14.6784 1.03605C14.4015 1.22452 14.1234 1.42297 13.8597 1.59592C13.7279 1.67907 13.5938 1.77331 13.5019 1.83429C13.4221 1.88418 13.3435 1.9252 13.2692 1.95513C13.174 1.99504 13.0864 2.0527 13.0144 2.12809C12.9424 2.20348 12.8804 2.28884 12.8272 2.37199C12.7219 2.5394 12.6488 2.69129 12.5968 2.75005C12.4771 2.94185 12.3065 3.06158 12.1813 3.12034C12.0561 3.17799 11.983 3.18132 12.0517 3.11591C11.8999 3.29884 11.7891 3.50838 11.6595 3.72679C11.5975 3.83876 11.5288 3.95185 11.4457 4.06382C11.4036 4.11925 11.3582 4.17469 11.3072 4.23012C11.2573 4.28556 11.2053 4.34432 11.1455 4.40086C11.0668 4.40973 10.9715 4.51283 10.8685 4.65807C10.7655 4.80331 10.6735 5.00286 10.5771 5.19023C10.4785 5.37538 10.4076 5.56939 10.3312 5.69911C10.2581 5.83104 10.1905 5.90865 10.1318 5.88204L10.1473 5.89867C10.0121 6.06275 9.90686 6.24235 9.81601 6.42639C9.72738 6.61265 9.66756 6.8111 9.59998 7.00623L9.55123 7.15368L9.50913 7.30446C9.48033 7.40535 9.45042 7.50624 9.41607 7.60602C9.34295 7.80558 9.27648 8.01069 9.17456 8.21357C9.17456 8.21357 9.16126 8.19251 9.15351 8.15814C9.22552 8.81336 9.37508 9.4442 9.54126 10.0429C9.84925 9.92203 10.1561 9.81227 10.4608 9.7136C10.7655 9.30007 11.1011 8.92312 11.4435 8.58498C11.5964 8.02953 11.7891 7.48628 12.0373 6.96742C12.291 6.45189 12.5934 5.95854 12.9402 5.48846C13.1119 5.32771 13.2703 5.15919 13.4543 5.01063L13.7201 4.78224L14.0004 4.56827C14.181 4.42192 14.3838 4.29442 14.5743 4.15917C14.6685 4.09043 14.7737 4.03278 14.8734 3.96847L15.0241 3.87535C15.0573 3.85872 15.0596 3.86093 15.0651 3.86537L15.0828 3.84319C15.0994 3.82656 15.1293 3.78776 15.1615 3.80107C15.1803 3.81881 15.1847 3.84985 15.1958 3.88532L15.1991 3.91304L15.2014 3.92745V3.93633L15.2036 3.98621C15.2069 4.11925 15.2147 4.2534 15.2147 4.38533C15.2191 4.65142 15.2147 4.91638 15.2036 5.17914C15.1825 5.70576 15.126 6.22573 15.0352 6.72795C15.0695 6.89869 15.0939 7.06721 15.1205 7.24127C14.8701 7.70469 14.6784 8.21135 14.4447 8.70138C14.4159 8.76236 14.386 8.82334 14.3561 8.88432L14.2619 9.06392C14.232 9.1249 14.1987 9.18365 14.1633 9.2402L14.1123 9.32668L14.0868 9.36991L14.0747 9.39208L14.0425 9.43421L13.78 9.78123L13.7146 9.86771C13.6869 9.89653 13.6548 9.92646 13.6249 9.9564L13.441 10.1327C13.2493 10.3688 12.815 10.5961 12.4649 10.8245C12.4494 10.8334 12.4239 10.8433 12.4162 10.8522L12.3852 10.8799L12.322 10.9365L12.1957 11.0484C12.1104 11.1227 12.0262 11.197 11.9409 11.2713L11.8766 11.3267L11.8445 11.3544L11.829 11.3688L11.8224 11.381L11.7714 11.4753C11.7359 11.5385 11.7016 11.6006 11.6673 11.6638L11.6141 11.758C11.5975 11.789 11.5742 11.8245 11.5698 11.8445C11.552 11.891 11.5343 11.9376 11.5166 11.9842C11.4834 12.0684 11.4501 12.1527 11.4169 12.2358L11.6695 12.2003C11.6584 12.2702 11.6385 12.3345 11.6196 12.3655C11.6008 12.3966 11.5797 12.4199 11.5587 12.4387C11.5166 12.4764 11.4745 12.4964 11.4545 12.5263C11.4534 12.5596 11.4501 12.5706 11.4479 12.5906L11.4413 12.6449V12.6582L11.449 12.6604L11.4645 12.6638C11.4745 12.6649 11.4845 12.6671 11.4989 12.6793C11.5122 12.6893 11.5255 12.697 11.5399 12.7092L11.5908 12.7636L11.7426 12.931L11.8489 13.0474C11.8955 13.0917 11.9575 13.1438 12.0118 13.1904C12.0417 13.2148 12.0617 13.2381 12.1004 13.2636L12.2345 13.3412L12.3674 13.4188L12.4339 13.4576L12.4505 13.4676L12.4782 13.4742L12.5325 13.4864L12.969 13.5884L13.0233 13.6006C13.0333 13.6017 13.0388 13.6072 13.0532 13.605L13.0953 13.5995L13.2626 13.5773L13.5961 13.533L13.9295 13.4886C13.9617 13.4831 13.9738 13.4886 13.9949 13.4886L14.0525 13.4931L14.1677 13.5019L14.3993 13.5186L14.5145 13.5274L14.5721 13.5319C14.5909 13.5341 14.6042 13.5407 14.6197 13.5452L14.9875 13.6638L15.033 13.6782L15.0562 13.686L15.0673 13.6893L15.0728 13.6915C15.0728 13.6915 15.0673 13.6882 15.0928 13.6993L15.1293 13.7159L15.1327 13.7181L15.1393 13.7214L15.1537 13.7292L15.2102 13.758C15.2889 13.7924 15.3542 13.8412 15.4274 13.8822C15.5625 13.9742 15.6822 14.0784 15.7907 14.1915C15.8816 14.2991 15.9691 14.4188 16.0378 14.5574C16.1009 14.6982 16.1619 14.8467 16.1918 15.0064C16.2206 15.1638 16.2428 15.3268 16.2306 15.4831V15.5419L16.2217 15.5995C16.2162 15.6372 16.2151 15.6771 16.2073 15.7137C16.1896 15.7858 16.1785 15.8612 16.1519 15.9266C16.1353 15.9986 16.0987 16.0563 16.0755 16.1206C16.0389 16.1749 16.0145 16.2392 15.9724 16.2847C15.9525 16.3091 15.9381 16.339 15.9159 16.359C15.8938 16.38 15.8738 16.4022 15.8539 16.4255C15.8373 16.4499 15.804 16.4665 15.7819 16.4887C15.7564 16.5086 15.7365 16.5352 15.7065 16.5497C15.3 16.8568 14.5776 16.9055 13.9473 16.6772C13.8908 16.6383 13.8066 16.5896 13.7046 16.5463C13.6548 16.5208 13.6027 16.4942 13.5473 16.4687C13.4919 16.4432 13.441 16.41 13.3867 16.3822L13.3545 16.3645L13.3501 16.359L13.3412 16.3479L13.3335 16.3224V16.3157L13.3313 16.3102L13.3158 16.2891C13.2947 16.2614 13.2759 16.2348 13.2593 16.2104C13.2426 16.1849 13.2271 16.1616 13.215 16.1394C13.2094 16.1284 13.2039 16.1173 13.1983 16.1084L13.2039 16.0995L13.185 16.1062H13.1751L13.1684 16.104L13.164 16.1018L13.154 16.0907L12.9978 15.9155C12.8948 15.7969 12.7929 15.6771 12.692 15.5541C12.4915 15.3102 12.301 15.0518 12.1148 14.7924C11.7426 14.2713 11.3958 13.7292 11.0557 13.197L11.0967 13.227L10.7389 12.7469C10.7355 12.7181 10.7511 12.7048 10.7721 12.7137C10.2813 12.2336 9.78499 11.2635 9.31082 10.5429L9.35625 10.5717C8.59957 9.55949 7.74097 8.60715 6.8015 7.77011C6.56442 7.56389 6.33398 7.34991 6.08582 7.16144L5.71911 6.87208L5.53632 6.72795L5.34798 6.59269C5.17848 6.47739 4.64116 6.06718 4.22017 5.81108C3.78145 5.53724 3.34385 5.26451 2.90624 4.99067L2.82869 4.94965C2.80321 4.93746 2.7744 4.91639 2.75668 4.91971L2.6337 4.90752L2.38886 4.88202L1.89919 4.82991L1.65435 4.80331L1.53248 4.79C1.51365 4.79 1.48927 4.78224 1.47376 4.78667C1.45825 4.79 1.44053 4.79443 1.4228 4.79998C1.34857 4.82326 1.24444 4.87093 1.16799 4.92526C1.08712 4.98069 1.0428 5.02615 0.997381 5.0849L0.85779 5.25231C0.834524 5.28225 0.810151 5.30442 0.789102 5.3399L0.728169 5.4552L0.606303 5.68469L0.575283 5.74234C0.568636 5.76674 0.563097 5.79334 0.55645 5.81884L0.51989 5.97406L0.446771 6.28338C0.430153 6.39535 0.423505 6.51841 0.412427 6.63482C0.402456 6.75345 0.388053 6.86875 0.382514 6.99071L0.368112 7.3599C0.34817 7.85215 0.368112 8.36878 0.411319 8.88875C0.41575 8.95194 0.420182 9.02179 0.427937 9.08166L0.445663 9.23022L0.474467 9.47191C0.499948 9.63267 0.522106 9.79342 0.549802 9.95529C0.663913 10.5994 0.827877 11.2447 1.05167 11.8855C1.32088 12.8389 1.85598 13.8024 2.61265 14.6383C2.99154 15.0552 3.4225 15.4399 3.89113 15.7802C4.00635 15.8689 4.12932 15.9454 4.24897 16.0275C4.3088 16.0685 4.36973 16.1084 4.43288 16.145L4.50711 16.1893L4.52151 16.196C4.54256 16.2049 4.56472 16.2159 4.58355 16.227C4.60571 16.2403 4.62454 16.2536 4.62897 16.2658C4.63119 16.2802 4.62897 16.2836 4.58023 16.3058C4.49824 16.3191 4.44839 16.3202 4.4362 16.3179L4.42956 16.3146H4.43066L4.4218 16.3235L4.40629 16.3379C4.3365 16.4022 4.26781 16.4665 4.1969 16.5319C4.12046 16.6084 4.04291 16.6838 3.96758 16.7625C3.81691 16.9222 3.66956 17.0885 3.53218 17.2647C3.4635 17.3534 3.39592 17.4399 3.33277 17.5319C3.30064 17.5774 3.26962 17.6228 3.2386 17.6683C3.20758 17.7149 3.17656 17.767 3.14554 17.8158C2.9007 18.2116 2.72344 18.6062 2.60933 18.9677C2.37335 19.6905 2.36117 20.2715 2.36892 20.43L2.36227 20.4322Z" fill="#0A369C"/>
<path d="M10.1793 23.0365L10.1638 23.0564C10.217 23.1008 10.2214 23.0564 10.1793 23.0365Z" fill="#0A369C"/>
<path d="M5.57635 18.3113L5.5542 18.3313C5.60292 18.3268 5.65387 18.3246 5.70259 18.3224L5.57635 18.3113Z" fill="#0A369C"/>
<path d="M5.96509 22.6052C5.74693 22.5243 5.73586 22.532 5.7569 22.5697C5.83552 22.5974 5.9064 22.6185 5.96509 22.6052Z" fill="#0A369C"/>
<path d="M11.4833 20.4543C11.5497 20.2859 11.4877 20.338 11.408 20.4211C11.3504 20.594 11.3105 20.7147 11.3105 20.7147C11.3615 20.6272 11.4313 20.5463 11.4833 20.4543Z" fill="#0A369C"/>
<path d="M10.3439 20.7443L10.3131 20.675C10.2878 20.7674 10.3054 20.7718 10.3439 20.7443Z" fill="#0A369C"/>
</svg>
