<svg width="23" height="25" viewBox="0 0 23 25" fill="none" xmlns="http://www.w3.org/2000/svg">
<path fill-rule="evenodd" clip-rule="evenodd" d="M22.687 9.70188C20.667 8.94188 16.887 9.94188 14.867 9.18188C14.797 7.62188 14.957 5.64189 14.867 3.97189C14.797 2.53189 14.967 0.541883 13.827 0.0618827C12.977 -0.178117 10.6169 0.321882 9.65693 0.841882C8.93693 3.33188 9.94702 7.56188 8.87702 9.70188C5.72702 9.94188 1.86703 9.47189 0.0170324 11.0019C-0.0229676 12.4319 -0.0129578 13.8119 0.277042 14.9119C3.14704 14.8519 6.19702 15.5919 8.87702 14.9119C9.95702 17.2219 9.45694 21.1019 10.1769 23.7719C11.7269 24.4119 13.577 23.6819 14.867 23.2519C16.367 20.7519 14.257 17.0219 15.127 14.3919C17.187 14.7619 20.637 14.8419 22.687 14.3919C23.107 13.3519 23.107 10.7419 22.687 9.70188ZM15.127 13.3519C14.227 13.5619 14.1269 12.9619 13.3069 13.0919C13.1269 14.2619 12.7469 15.7019 12.7869 17.2619C12.8369 19.2319 14.387 21.8819 11.747 21.9519C11.607 18.7119 10.927 15.9919 10.447 13.0919C9.18696 12.9719 7.30702 13.4919 5.75702 13.6119C4.31702 13.7219 2.207 14.2519 2.107 12.8319C2.467 11.8119 3.87698 12.3919 4.71698 12.3119C6.43698 12.1419 8.34693 11.8519 9.66693 11.5319C11.6269 9.84188 10.467 5.04188 11.227 2.15188C11.597 2.17188 11.967 2.19188 12.007 1.89188C12.307 1.85188 12.467 1.95188 12.527 2.15188C12.737 5.07188 12.0269 8.90188 13.0469 11.0119C14.9669 12.1219 19.697 10.9519 21.127 11.7919C20.457 13.6419 16.627 12.3319 15.137 13.3519H15.127Z" fill="black"/>
</svg>
