<svg width="24" height="33" viewBox="0 0 24 33" fill="none" xmlns="http://www.w3.org/2000/svg">
<path d="M3.21002 25.96C2.60002 21.38 1.99004 17.29 1.54004 13.05C1.36004 13.05 1.35002 12.87 1.12002 12.91C1.09002 13.11 0.890025 13.14 0.840025 13.33C0.630025 13.34 0.460042 14.3 0.420042 14.72C0.210042 17.13 0.720014 19.34 1.11001 22.63C1.31001 24.27 1.45003 29.77 2.91003 29.57C4.02003 29.42 3.33003 27.02 3.19003 25.96H3.21002ZM8.90002 16.38C8.55002 15.51 6.63004 15.2 6.26004 16.24C7.36004 19.55 8.36002 23.98 12.65 23.32C13.88 23.13 15.36 21.97 16.12 21.1C17.33 19.72 17.65 17.64 17.92 15.54C17.14 14.69 15.07 15.23 15 16.37C15.01 16.96 15.75 16.82 15.83 17.34C15.68 19.31 13.75 21.43 12.22 21.64C9.85003 21.97 9.27001 19.55 8.33002 17.75C8.38002 17.15 9.10004 17.22 8.89004 16.36L8.90002 16.38ZM23.34 13.46C21.88 12.69 21.72 10.63 20.98 9.16004C20.46 9.24004 20.02 9.49004 19.45 9.58004C16.05 10.07 11.77 9.51004 8.48004 9.30004C8.47004 6.01004 11.17 1.64004 13.76 1.80004C14.9 1.87004 15.97 2.98004 16.26 3.88004C16.83 5.66004 15.33 8.25004 16.96 8.88004C17.75 8.61004 17.85 7.16004 17.93 6.10004C18.2 2.59004 16.53 1.32004 14.6 0.410037C13.76 0.410037 12.69 0.370036 12.24 0.550037C9.51002 1.65004 6.75002 5.65004 7.24002 9.30004C7.00002 9.62004 6.25003 9.42004 6.41003 10.13C7.53003 10.51 8.87003 10.6 10.16 10.69C13.38 10.9 17.11 11.04 20.3 10.83C20.28 11.59 20.9 12.45 20.72 12.91C14.8 12.97 9.18001 13.61 3.36001 13.05C3.82001 12.54 4.34004 11.94 4.89004 11.38C5.36004 10.91 6.40003 10.46 6.00003 9.57004C4.91003 9.26004 4.27004 10.61 3.64004 11.24C3.32004 11.56 2.76003 11.83 2.53003 12.21C2.26003 12.65 2.45001 13.35 2.11001 13.74C3.70001 14.56 5.74004 14.21 7.67004 14.3C9.10004 14.36 10.4 14.36 11.84 14.3C15.36 14.15 19.02 13.71 21.98 14.44C21.19 16.83 21.6 19.27 21.28 21.8C21.2 22.41 20.85 23.09 20.72 23.74C20.26 26.25 19.88 28.3 19.47 30.41C17.55 31.44 15.3 30.68 12.39 30.55C9.68004 30.43 6.72004 30.88 4.89004 30.55C4.20004 30.43 3.73001 29.79 3.08001 29.99C2.86001 31.07 3.95004 31.64 4.89004 31.8C7.26004 32.2 9.69001 31.81 12.11 31.94C14.49 32.06 16.75 32.58 18.36 32.36C21.41 31.94 21.02 29.54 21.69 26.81C21.89 26.01 21.96 25.25 22.11 24.45C22.24 23.7 22.58 22.92 22.67 22.23C22.92 20.09 22.83 18.01 23.09 15.98C23.2 15.12 23.57 14.37 23.37 13.48L23.34 13.46Z" fill="black"/>
</svg>
